<svg width="71" height="70" viewBox="0 0 71 70" fill="none" xmlns="http://www.w3.org/2000/svg">
<rect x="0.5" width="70" height="70" rx="4" fill="#EADFD8"/>
<path d="M55.5858 26.3464L48.6661 34.2433L55.5858 44.3737L61.0944 42.065C61.9462 41.7079 62.5005 40.8746 62.5005 39.951V30.6512C62.5005 29.7122 61.9278 28.8683 61.0553 28.5213L55.5858 26.3464Z" fill="#025162"/>
<path d="M14.5672 26.2858L8.90615 28.6584C8.05436 29.0154 7.5 29.8488 7.5 30.7723V40.0721C7.5 41.0111 8.07273 41.855 8.94525 42.202L14.5672 44.4374L23.3898 35.9241L14.5672 26.2858Z" fill="#025162"/>
<path d="M55.5861 26.0974C55.5861 25.5579 55.2364 25.0808 54.722 24.9185L53.4441 24.5153C50.7209 23.6274 50.0962 23.6003 47.3042 23.076L19.2383 31.149L16.5806 48.3677C16.6511 48.3747 16.7226 48.3786 16.795 48.3786H30.3327C30.5387 48.3786 30.738 48.3055 30.8951 48.1724L34.545 45.0824C34.8728 44.8048 35.3542 44.8079 35.6783 45.0897L39.2183 48.1652C39.3766 48.3028 39.5794 48.3786 39.7892 48.3786H40.2093L55.5861 35.477V26.0974Z" fill="#EADFD8"/>
<path d="M15.5146 24.9139C14.9968 25.0748 14.6432 25.5536 14.6432 26.0958V27.9524V46.2275C14.6432 47.3432 15.4926 48.2603 16.5801 48.3679L47.3036 23.0762C36.7535 21.0948 25.8385 21.7054 15.5146 24.9139Z" fill="#E75313"/>
<path d="M40.2073 48.3787H53.4328C54.6209 48.3787 55.584 47.4155 55.584 46.2274V35.4772L40.2073 48.3787Z" fill="#E75313"/>
<path d="M35.095 33.1248L47.3035 23.0747C43.2695 22.3171 39.1822 21.9398 35.095 21.9404V33.1248Z" fill="#E75313"/>
<path d="M53.4239 49.654H39.7785C39.1805 49.654 38.6025 49.438 38.1511 49.0458L35.0905 46.3868L31.9255 49.0663C31.4776 49.4453 30.9082 49.654 30.3219 49.654H16.784C16.6618 49.654 16.5365 49.6476 16.4111 49.6353C14.4787 49.444 13.0215 47.8345 13.0215 45.8915V25.7598C13.0215 24.5052 13.827 23.4118 15.0258 23.0392C25.521 19.7776 36.7816 19.1267 47.5904 21.1567C48.0865 21.2498 48.5137 21.3271 48.896 21.3964C50.6895 21.7212 51.5907 21.8844 53.9251 22.6452L55.1955 23.0461C56.3862 23.4217 57.1861 24.5129 57.1861 25.7615V45.8914C57.1863 47.9661 55.4985 49.654 53.4239 49.654ZM40.0553 46.4316H53.4239C53.7222 46.4316 53.9639 46.1898 53.9639 45.8916V26.9161C53.9639 26.3924 53.6244 25.9292 53.125 25.7716L52.9337 25.7112C50.8025 25.0165 50.0763 24.8849 48.3219 24.5673C47.9334 24.4969 47.4996 24.4183 46.9957 24.3237C37.0878 22.4629 26.7812 22.9675 17.1102 25.7773C16.5971 25.9264 16.2439 26.3965 16.2439 26.9309V45.8914C16.2439 46.1657 16.4566 46.4016 16.7282 46.4285C16.7484 46.4305 16.7672 46.4315 16.784 46.4315H30.0504L33.4931 43.5168C34.4343 42.7199 35.7933 42.7284 36.7244 43.5375L40.0553 46.4316ZM54.2243 26.1185C54.2249 26.1188 54.2257 26.119 54.2263 26.1192L54.2243 26.1185Z" fill="#025162"/>
<path d="M55.1962 23.0449L53.9258 22.644C51.5914 21.8832 50.6902 21.72 48.8967 21.3952C48.5142 21.3259 48.0872 21.2486 47.5911 21.1555C43.4689 20.3812 39.2811 19.9983 35.095 20.0001V23.2225C39.0818 23.2208 43.0704 23.5853 46.9964 24.3226C47.5001 24.4172 47.934 24.4958 48.3226 24.5662C50.077 24.8839 50.8032 25.0154 52.9344 25.7101L53.9646 26.0353V45.8903C53.9646 46.188 53.7224 46.4304 53.4246 46.4304H40.056L36.7251 43.5365C36.2546 43.1277 35.6749 42.924 35.0951 42.9246V46.3891L38.1516 49.0447C38.6031 49.4369 39.1811 49.6529 39.7791 49.6529H53.4245C55.4991 49.6529 57.1869 47.965 57.1869 45.8904V25.7603C57.1868 24.5117 56.3869 23.4205 55.1962 23.0449Z" fill="#025162"/>
</svg>
